<svg width="280" height="280" viewBox="0 0 280 280" fill="none" xmlns="http://www.w3.org/2000/svg">
<path d="M208.597 61.3555L177.249 216.648H132.913L145.005 156.306H84.7716L72.6802 216.648H28.345L59.6931 61.3555H104.028L92.3847 119.479H152.618L164.261 61.3555H208.597Z" fill="white"/>
<path d="M231.967 218.644C224.951 218.644 219.129 216.5 214.501 212.211C210.023 207.774 207.784 202.228 207.784 195.572C207.784 187.586 210.396 181.152 215.621 176.272C220.995 171.243 227.488 168.729 235.101 168.729C242.267 168.729 248.014 170.873 252.343 175.162C256.821 179.304 259.06 184.85 259.06 191.801C259.06 199.64 256.373 206.073 250.999 211.102C245.775 216.13 239.43 218.644 231.967 218.644Z" fill="white"/>
</svg>
